<?xml version="1.0" encoding="utf-8"?>
<?xml-stylesheet type="text/xsl" href="rss1.xsl"?>
<rss version="2.0" xmlns:atom="http://www.w3.org/2005/Atom" xmlns:content="http://purl.org/rss/1.0/modules/content/" xmlns:dc="http://purl.org/dc/elements/1.1/" xmlns:media="http://search.yahoo.com/mrss/">
<channel>
 <title>Getty</title>
 <link>http://www.gettyimg.com/</link>
 <atom:link href="http://www.gettyimg.com/" rel="self" type="application/rss+xml" />

 
                <item>
                <title><![CDATA[【Cinema Center】WEB-DL - Red, White &amp; Royal Blue 2023 2160p SDR PrimeVDO WEB-DL DDP5.1 H.264 - JEVE]]></title>
                <link><![CDATA[https://sharemania.us/threads/red-white-royal-blue-2023-2160p-sdr-primevdo-web-dl-ddp5-1-h-264-jeve.226337/]]></link>
                <description><![CDATA[<article>
<blockquote class="messageText SelectQuoteContainer ugc baseHtml">
<div style="text-align: center"><img src="https://images-na.ssl-images-amazon.com/images/S/pv-target-images/4c748f84e1ad5f648aad29c97247fd0c9b70d7aeacdfaf89a032dd539217ab15._RI_TTW_.png" class="bbCodeImage LbImage" alt="[​IMG]" data-url="https://images-na.ssl-images-amazon.com/images/S/pv-target-images/4c748f84e1ad5f648aad29c97247fd0c9b70d7aeacdfaf89a032dd539217ab15._RI_TTW_.png" style=""> <br>
​</div><br>
<div style="text-align: center"><b><i><span style="text-decoration: underline">Video<br>
</span></i></b>​</div><br>
<div class="bbCodeBlock bbCodeVfcHH HiddenContent">
<div class="attribution type">Hidden Content:</div>
<blockquote>You must reply before you can see the hidden data contained here.</blockquote>
</div><div style="text-align: center"><br>
<b><i><span style="text-decoration: underline">Media Info</span></i></b>​</div><span style="text-decoration: underline"><i><b>[</b></i></span><i><b>HIDE]</b> </i>Complete name : Red.White.and.Royal.Blue.2023.2160p.SDR.AMZN.WEB-DL.DDP5.1.H.265-JEVE.mkv<br>
Format : Matroska<br>
Format version : Version 4<br>
File size : 12.9 GiB<br>
Duration : 2 h 1 min<br>
Overall bit rate : 15.3 Mb/s<br>
Frame rate : 24.000 FPS<br>
Movie name : Tim's Rip<br>
Encoded date : 2023-08-12 16:22:42 UTC<br>
Writing application : mkvmerge v70.0.0 ('Caught A Lite Sneeze') 64-bit<br>
Writing library : libebml v1.4.2 + libmatroska v1.6.4<br>
Video<br>
ID : 1<br>
Format : HEVC<br>
Format/Info : High Efficiency Video Coding<br>
Format profile : Main@L5@Main<br>
Codec ID : V_MPEGH/ISO/HEVC<br>
Duration : 2 h 1 min<br>
Bit rate : 14.6 Mb/s<br>
Width : 3 840 pixels<br>
Height : 2 160 pixels<br>
Display aspect ratio : 16:9<br>
Frame rate mode : Constant<br>
Frame rate : 24.000 FPS<br>
Color space : YUV<br>
Chroma subsampling : 4:2:0<br>
Bit depth : 8 bits<br>
Bits/(Pixel*Frame) : 0.073<br>
Stream size : 12.4 GiB (96%)<br>
Language : English (US)<br>
Default : Yes<br>
Forced : No<br>
Color range : Limited<br>
Color primaries : BT.709<br>
Transfer characteristics : BT.709<br>
Matrix coefficients : BT.709<br>
Audio<br>
ID : 2<br>
Format : E-AC-3<br>
Format/Info : Enhanced AC-3<br>
Commercial name : Dolby Digital Plus<br>
Codec ID : A_EAC3<br>
Duration : 2 h 1 min<br>
Bit rate mode : Constant<br>
Bit rate : 640 kb/s<br>
Channel(s) : 6 channels<br>
Channel layout : L R C LFE Ls Rs<br>
Sampling rate : 48.0 kHz<br>
Frame rate : 31.250 FPS (1536 SPF)<br>
Compression mode : Lossy<br>
Stream size : 555 MiB (4%)<br>
Language : English (US)<br>
Service kind : Complete Main<br>
Default : Yes<br>
Forced : No<br>
Text #1<br>
ID : 3<br>
Format : UTF-8<br>
Codec ID : S_TEXT/UTF8<br>
Codec ID/Info : UTF-8 Plain Text<br>
Duration : 1 h 57 min<br>
Bit rate : 73 b/s<br>
Frame rate : 0.247 FPS<br>
Count of elements : 1737<br>
Stream size : 63.0 KiB (0%)<br>
Language : English (US)<br>
Default : No<br>
Forced : No<br>
Text #2<br>
ID : 4<br>
Format : UTF-8<br>
Codec ID : S_TEXT/UTF8<br>
Codec ID/Info : UTF-8 Plain Text<br>
Duration : 1 h 57 min<br>
Bit rate : 81 b/s<br>
Frame rate : 0.282 FPS<br>
Count of elements : 1983<br>
Stream size : 70.2 KiB (0%)<br>
Title : SDH<br>
Language : English (US)<br>
Default : No<br>
Forced : No<br>
Text #3<br>
ID : 5<br>
Format : UTF-8<br>
Codec ID : S_TEXT/UTF8<br>
Codec ID/Info : UTF-8 Plain Text<br>
Duration : 1 h 57 min<br>
Bit rate : 99 b/s<br>
Frame rate : 0.216 FPS<br>
Count of elements : 1524<br>
Stream size : 85.7 KiB (0%)<br>
Language : Arabic (001)<br>
Default : No<br>
Forced : No<br>
Text #4<br>
ID : 6<br>
Format : UTF-8<br>
Codec ID : S_TEXT/UTF8<br>
Codec ID/Info : UTF-8 Plain Text<br>
Duration : 1 h 57 min<br>
Bit rate : 58 b/s<br>
Frame rate : 0.218 FPS<br>
Count of elements : 1533<br>
Stream size : 50.6 KiB (0%)<br>
Title : European<br>
Language : Catalan (ES)<br>
Default : No<br>
Forced : No<br>
Text #5<br>
ID : 7<br>
Format : UTF-8<br>
Codec ID : S_TEXT/UTF8<br>
Codec ID/Info : UTF-8 Plain Text<br>
Duration : 1 h 57 min<br>
Bit rate : 63 b/s<br>
Frame rate : 0.216 FPS<br>
Count of elements : 1521<br>
Stream size : 54.7 KiB (0%)<br>
Language : Czech (CZ)<br>
Default : No<br>
Forced : No<br>
Text #6<br>
ID : 8<br>
Format : UTF-8<br>
Codec ID : S_TEXT/UTF8<br>
Codec ID/Info : UTF-8 Plain Text<br>
Duration : 1 h 57 min<br>
Bit rate : 58 b/s<br>
Frame rate : 0.215 FPS<br>
Count of elements : 1517<br>
Stream size : 50.2 KiB (0%)<br>
Language : Danish (DK)<br>
Default : No<br>
Forced : No<br>
Text #7<br>
ID : 9<br>
Format : UTF-8<br>
Codec ID : S_TEXT/UTF8<br>
Codec ID/Info : UTF-8 Plain Text<br>
Duration : 1 h 57 min<br>
Bit rate : 58 b/s<br>
Frame rate : 0.216 FPS<br>
Count of elements : 1518<br>
Stream size : 50.2 KiB (0%)<br>
Language : German (DE)<br>
Default : No<br>
Forced : No<br>
Text #8<br>
ID : 10<br>
Format : UTF-8<br>
Codec ID : S_TEXT/UTF8<br>
Codec ID/Info : UTF-8 Plain Text<br>
Duration : 1 h 57 min<br>
Bit rate : 106 b/s<br>
Frame rate : 0.218 FPS<br>
Count of elements : 1534<br>
Stream size : 91.7 KiB (0%)<br>
Language : Greek (GR)<br>
Default : No<br>
Forced : No<br>
Text #9<br>
ID : 11<br>
Format : UTF-8<br>
Codec ID : S_TEXT/UTF8<br>
Codec ID/Info : UTF-8 Plain Text<br>
Duration : 1 h 57 min<br>
Bit rate : 59 b/s<br>
Frame rate : 0.216 FPS<br>
Count of elements : 1524<br>
Stream size : 51.1 KiB (0%)<br>
Title : Latin American<br>
Language : Spanish (Latin America)<br>
Default : No<br>
Forced : No<br>
Text #10<br>
ID : 12<br>
Format : UTF-8<br>
Codec ID : S_TEXT/UTF8<br>
Codec ID/Info : UTF-8 Plain Text<br>
Duration : 1 h 57 min<br>
Bit rate : 56 b/s<br>
Frame rate : 0.214 FPS<br>
Count of elements : 1509<br>
Stream size : 48.3 KiB (0%)<br>
Language : Spanish (ES)<br>
Default : No<br>
Forced : No<br>
Text #11<br>
ID : 13<br>
Format : UTF-8<br>
Codec ID : S_TEXT/UTF8<br>
Codec ID/Info : UTF-8 Plain Text<br>
Duration : 1 h 57 min<br>
Bit rate : 59 b/s<br>
Frame rate : 0.218 FPS<br>
Count of elements : 1533<br>
Stream size : 50.9 KiB (0%)<br>
Title : European<br>
Language : Basque (ES)<br>
Default : No<br>
Forced : No<br>
Text #12<br>
ID : 14<br>
Format : UTF-8<br>
Codec ID : S_TEXT/UTF8<br>
Codec ID/Info : UTF-8 Plain Text<br>
Duration : 1 h 57 min<br>
Bit rate : 57 b/s<br>
Frame rate : 0.215 FPS<br>
Count of elements : 1513<br>
Stream size : 49.5 KiB (0%)<br>
Language : Finnish (FI)<br>
Default : No<br>
Forced : No<br>
Text #13<br>
ID : 15<br>
Format : UTF-8<br>
Codec ID : S_TEXT/UTF8<br>
Codec ID/Info : UTF-8 Plain Text<br>
Duration : 1 h 57 min<br>
Bit rate : 63 b/s<br>
Frame rate : 0.214 FPS<br>
Count of elements : 1508<br>
Stream size : 54.8 KiB (0%)<br>
Language : fil (PH)<br>
Default : No<br>
Forced : No<br>
Text #14<br>
ID : 16<br>
Format : UTF-8<br>
Codec ID : S_TEXT/UTF8<br>
Codec ID/Info : UTF-8 Plain Text<br>
Duration : 1 h 57 min<br>
Bit rate : 65 b/s<br>
Frame rate : 0.213 FPS<br>
Count of elements : 1498<br>
Stream size : 56.7 KiB (0%)<br>
Title : Canadian<br>
Language : French (CA)<br>
Default : No<br>
Forced : No<br>
Text #15<br>
ID : 17<br>
Format : UTF-8<br>
Codec ID : S_TEXT/UTF8<br>
Codec ID/Info : UTF-8 Plain Text<br>
Duration : 1 h 57 min<br>
Bit rate : 58 b/s<br>
Frame rate : 0.214 FPS<br>
Count of elements : 1510<br>
Stream size : 50.6 KiB (0%)<br>
Language : French (FR)<br>
Default : No<br>
Forced : No<br>
Text #16<br>
ID : 18<br>
Format : UTF-8<br>
Codec ID : S_TEXT/UTF8<br>
Codec ID/Info : UTF-8 Plain Text<br>
Duration : 1 h 57 min<br>
Bit rate : 53 b/s<br>
Frame rate : 0.218 FPS<br>
Count of elements : 1532<br>
Stream size : 46.2 KiB (0%)<br>
Title : European<br>
Language : Galician (ES)<br>
Default : No<br>
Forced : No<br>
Text #17<br>
ID : 19<br>
Format : UTF-8<br>
Codec ID : S_TEXT/UTF8<br>
Codec ID/Info : UTF-8 Plain Text<br>
Duration : 1 h 57 min<br>
Bit rate : 96 b/s<br>
Frame rate : 0.218 FPS<br>
Count of elements : 1535<br>
Stream size : 82.6 KiB (0%)<br>
Language : Hebrew (IL)<br>
Default : No<br>
Forced : No<br>
Text #18<br>
ID : 20<br>
Format : UTF-8<br>
Codec ID : S_TEXT/UTF8<br>
Codec ID/Info : UTF-8 Plain Text<br>
Duration : 1 h 57 min<br>
Bit rate : 153 b/s<br>
Frame rate : 0.218 FPS<br>
Count of elements : 1535<br>
Stream size : 132 KiB (0%)<br>
Language : Hindi (IN)<br>
Default : No<br>
Forced : No<br>
Text #19<br>
ID : 21<br>
Format : UTF-8<br>
Codec ID : S_TEXT/UTF8<br>
Codec ID/Info : UTF-8 Plain Text<br>
Duration : 1 h 57 min<br>
Bit rate : 61 b/s<br>
Frame rate : 0.218 FPS<br>
Count of elements : 1533<br>
Stream size : 53.2 KiB (0%)<br>
Language : Hungarian (HU)<br>
Default : No<br>
Forced : No<br>
Text #20<br>
ID : 22<br>
Format : UTF-8<br>
Codec ID : S_TEXT/UTF8<br>
Codec ID/Info : UTF-8 Plain Text<br>
Duration : 1 h 57 min<br>
Bit rate : 59 b/s<br>
Frame rate : 0.217 FPS<br>
Count of elements : 1531<br>
Stream size : 50.8 KiB (0%)<br>
Language : Indonesian (ID)<br>
Default : No<br>
Forced : No<br>
Text #21<br>
ID : 23<br>
Format : UTF-8<br>
Codec ID : S_TEXT/UTF8<br>
Codec ID/Info : UTF-8 Plain Text<br>
Duration : 1 h 57 min<br>
Bit rate : 59 b/s<br>
Frame rate : 0.218 FPS<br>
Count of elements : 1533<br>
Stream size : 51.4 KiB (0%)<br>
Language : Italian (IT)<br>
Default : No<br>
Forced : No<br>
Text #22<br>
ID : 24<br>
Format : UTF-8<br>
Codec ID : S_TEXT/UTF8<br>
Codec ID/Info : UTF-8 Plain Text<br>
Duration : 1 h 57 min<br>
Bit rate : 50 b/s<br>
Frame rate : 0.207 FPS<br>
Count of elements : 1456<br>
Stream size : 43.5 KiB (0%)<br>
Language : Japanese (JP)<br>
Default : No<br>
Forced : No<br>
Text #23<br>
ID : 25<br>
Format : UTF-8<br>
Codec ID : S_TEXT/UTF8<br>
Codec ID/Info : UTF-8 Plain Text<br>
Duration : 1 h 57 min<br>
Bit rate : 152 b/s<br>
Frame rate : 0.218 FPS<br>
Count of elements : 1535<br>
Stream size : 132 KiB (0%)<br>
Language : Kannada (IN)<br>
Default : No<br>
Forced : No<br>
Text #24<br>
ID : 26<br>
Format : UTF-8<br>
Codec ID : S_TEXT/UTF8<br>
Codec ID/Info : UTF-8 Plain Text<br>
Duration : 1 h 57 min<br>
Bit rate : 61 b/s<br>
Frame rate : 0.218 FPS<br>
Count of elements : 1535<br>
Stream size : 52.6 KiB (0%)<br>
Language : Korean (KR)<br>
Default : No<br>
Forced : No<br>
Text #25<br>
ID : 27<br>
Format : UTF-8<br>
Codec ID : S_TEXT/UTF8<br>
Codec ID/Info : UTF-8 Plain Text<br>
Duration : 1 h 57 min<br>
Bit rate : 190 b/s<br>
Frame rate : 0.218 FPS<br>
Count of elements : 1536<br>
Stream size : 164 KiB (0%)<br>
Language : Malayalam (IN)<br>
Default : No<br>
Forced : No<br>
Text #26<br>
ID : 28<br>
Format : UTF-8<br>
Codec ID : S_TEXT/UTF8<br>
Codec ID/Info : UTF-8 Plain Text<br>
Duration : 1 h 57 min<br>
Bit rate : 62 b/s<br>
Frame rate : 0.217 FPS<br>
Count of elements : 1529<br>
Stream size : 54.2 KiB (0%)<br>
Language : Malay (MY)<br>
Default : No<br>
Forced : No<br>
Text #27<br>
ID : 29<br>
Format : UTF-8<br>
Codec ID : S_TEXT/UTF8<br>
Codec ID/Info : UTF-8 Plain Text<br>
Duration : 1 h 57 min<br>
Bit rate : 58 b/s<br>
Frame rate : 0.216 FPS<br>
Count of elements : 1519<br>
Stream size : 50.2 KiB (0%)<br>
Language : Norwegian Bokmal (NO)<br>
Default : No<br>
Forced : No<br>
Text #28<br>
ID : 30<br>
Format : UTF-8<br>
Codec ID : S_TEXT/UTF8<br>
Codec ID/Info : UTF-8 Plain Text<br>
Duration : 1 h 57 min<br>
Bit rate : 52 b/s<br>
Frame rate : 0.215 FPS<br>
Count of elements : 1517<br>
Stream size : 44.8 KiB (0%)<br>
Language : Dutch (NL)<br>
Default : No<br>
Forced : No<br>
Text #29<br>
ID : 31<br>
Format : UTF-8<br>
Codec ID : S_TEXT/UTF8<br>
Codec ID/Info : UTF-8 Plain Text<br>
Duration : 1 h 57 min<br>
Bit rate : 54 b/s<br>
Frame rate : 0.216 FPS<br>
Count of elements : 1520<br>
Stream size : 46.4 KiB (0%)<br>
Language : Polish (PL)<br>
Default : No<br>
Forced : No<br>
Text #30<br>
ID : 32<br>
Format : UTF-8<br>
Codec ID : S_TEXT/UTF8<br>
Codec ID/Info : UTF-8 Plain Text<br>
Duration : 1 h 57 min<br>
Bit rate : 61 b/s<br>
Frame rate : 0.218 FPS<br>
Count of elements : 1533<br>
Stream size : 52.8 KiB (0%)<br>
Title : Brazilian<br>
Language : Portuguese (BR)<br>
Default : No<br>
Forced : No<br>
Text #31<br>
ID : 33<br>
Format : UTF-8<br>
Codec ID : S_TEXT/UTF8<br>
Codec ID/Info : UTF-8 Plain Text<br>
Duration : 1 h 57 min<br>
Bit rate : 65 b/s<br>
Frame rate : 0.218 FPS<br>
Count of elements : 1532<br>
Stream size : 55.9 KiB (0%)<br>
Language : Portuguese (PT)<br>
Default : No<br>
Forced : No<br>
Text #32<br>
ID : 34<br>
Format : UTF-8<br>
Codec ID : S_TEXT/UTF8<br>
Codec ID/Info : UTF-8 Plain Text<br>
Duration : 1 h 57 min<br>
Bit rate : 64 b/s<br>
Frame rate : 0.217 FPS<br>
Count of elements : 1530<br>
Stream size : 55.6 KiB (0%)<br>
Language : Romanian (RO)<br>
Default : No<br>
Forced : No<br>
Text #33<br>
ID : 35<br>
Format : UTF-8<br>
Codec ID : S_TEXT/UTF8<br>
Codec ID/Info : UTF-8 Plain Text<br>
Duration : 1 h 57 min<br>
Bit rate : 104 b/s<br>
Frame rate : 0.218 FPS<br>
Count of elements : 1536<br>
Stream size : 89.8 KiB (0%)<br>
Language : Russian (RU)<br>
Default : No<br>
Forced : No<br>
Text #34<br>
ID : 36<br>
Format : UTF-8<br>
Codec ID : S_TEXT/UTF8<br>
Codec ID/Info : UTF-8 Plain Text<br>
Duration : 1 h 57 min<br>
Bit rate : 61 b/s<br>
Frame rate : 0.216 FPS<br>
Count of elements : 1519<br>
Stream size : 52.5 KiB (0%)<br>
Language : Swedish (SE)<br>
Default : No<br>
Forced : No<br>
Text #35<br>
ID : 37<br>
Format : UTF-8<br>
Codec ID : S_TEXT/UTF8<br>
Codec ID/Info : UTF-8 Plain Text<br>
Duration : 1 h 57 min<br>
Bit rate : 164 b/s<br>
Frame rate : 0.218 FPS<br>
Count of elements : 1536<br>
Stream size : 142 KiB (0%)<br>
Language : Tamil (IN)<br>
Default : No<br>
Forced : No<br>
Text #36<br>
ID : 38<br>
Format : UTF-8<br>
Codec ID : S_TEXT/UTF8<br>
Codec ID/Info : UTF-8 Plain Text<br>
Duration : 1 h 57 min<br>
Bit rate : 159 b/s<br>
Frame rate : 0.218 FPS<br>
Count of elements : 1536<br>
Stream size : 137 KiB (0%)<br>
Language : Telugu (IN)<br>
Default : No<br>
Forced : No<br>
Text #37<br>
ID : 39<br>
Format : UTF-8<br>
Codec ID : S_TEXT/UTF8<br>
Codec ID/Info : UTF-8 Plain Text<br>
Duration : 1 h 57 min<br>
Bit rate : 161 b/s<br>
Frame rate : 0.218 FPS<br>
Count of elements : 1536<br>
Stream size : 139 KiB (0%)<br>
Language : Thai (TH)<br>
Default : No<br>
Forced : No<br>
Text #38<br>
ID : 40<br>
Format : UTF-8<br>
Codec ID : S_TEXT/UTF8<br>
Codec ID/Info : UTF-8 Plain Text<br>
Duration : 1 h 57 min<br>
Bit rate : 58 b/s<br>
Frame rate : 0.217 FPS<br>
Count of elements : 1530<br>
Stream size : 50.6 KiB (0%)<br>
Language : Turkish (TR)<br>
Default : No<br>
Forced : No<br>
Text #39<br>
ID : 41<br>
Format : UTF-8<br>
Codec ID : S_TEXT/UTF8<br>
Codec ID/Info : UTF-8 Plain Text<br>
Duration : 1 h 57 min<br>
Bit rate : 101 b/s<br>
Frame rate : 0.218 FPS<br>
Count of elements : 1536<br>
Stream size : 87.5 KiB (0%)<br>
Title : Ukraine<br>
Language : Ukrainian (UA)<br>
Default : No<br>
Forced : No<br>
Text #40<br>
ID : 42<br>
Format : UTF-8<br>
Codec ID : S_TEXT/UTF8<br>
Codec ID/Info : UTF-8 Plain Text<br>
Duration : 1 h 57 min<br>
Bit rate : 78 b/s<br>
Frame rate : 0.218 FPS<br>
Count of elements : 1532<br>
Stream size : 67.9 KiB (0%)<br>
Title : Vietnam<br>
Language : Vietnamese (VN)<br>
Default : No<br>
Forced : No<br>
Text #41<br>
ID : 43<br>
Format : UTF-8<br>
Codec ID : S_TEXT/UTF8<br>
Codec ID/Info : UTF-8 Plain Text<br>
Duration : 1 h 57 min<br>
Bit rate : 60 b/s<br>
Frame rate : 0.218 FPS<br>
Count of elements : 1536<br>
Stream size : 51.7 KiB (0%)<br>
Title : Simplified<br>
Language : Chinese (Simplified)<br>
Default : No<br>
Forced : No<br>
Text #42<br>
ID : 44<br>
Format : UTF-8<br>
Codec ID : S_TEXT/UTF8<br>
Codec ID/Info : UTF-8 Plain Text<br>
Duration : 1 h 57 min<br>
Bit rate : 50 b/s<br>
Frame rate : 0.218 FPS<br>
Count of elements : 1536<br>
Stream size : 43.5 KiB (0%)<br>
Title : Traditional<br>
Language : Chinese (Traditional)<br>
Default : No<br>
Forced : No <span style="text-decoration: underline"><i><b>[/HIDE]</b></i></span><br>
<br>
<div style="text-align: center">​</div>
<div class="messageTextEndMarker">&nbsp;</div>
</blockquote>
</article>]]></description>
                <author><![CDATA[2005_tim]]></author>
                </item>

                </channel></rss>